PathFileType  4	(X/Y/Z) C:\Users\antoi\Documents\MyRepositories\mobilecap\ResultsAnalysis
DataRate	CameraRate	NumFrames	NumMarkers	Units	OrigDataRate	OrigDataStartFrame	OrigNumFrames
100.0	100.0	6	51	mm	100.0	76	121
Frame#	Time	r_knee			r_shank_antsup			r_ankle			r_calc			r_5meta			r_toe			L_knee			L_shank_antsup			L_ankle			L_calc			L_5meta			L_toe			r_sh2			r_sh3			r_sh4			L_sh2			L_sh3			r_thigh1			r_thigh2			r_thigh3			r_thigh4			r_thigh5			L_thigh1			L_thigh2			L_thigh3			L_thigh4			r.ASIS			r.PSIS			L.ASIS			L.PSIS			C7			R_Shoulder			L_Shoulder			R_Sternum			L_Sternum			R_humerus			R_elbow_med			R_elbow_lat			R_forearm			R_wrist_radius			R_wrist_ulna			L_humerus			L_elbow_med			L_elbow_lat			L_forearm			L_wrist_radius			L_wrist_ulna			R_HJC			L_HJC			R_HJC_reg			L_HJC_reg			
		X1	Y1	Z1	X2	Y2	Z2	X3	Y3	Z3	X4	Y4	Z4	X5	Y5	Z5	X6	Y6	Z6	X7	Y7	Z7	X8	Y8	Z8	X9	Y9	Z9	X10	Y10	Z10	X11	Y11	Z11	X12	Y12	Z12	X13	Y13	Z13	X14	Y14	Z14	X15	Y15	Z15	X16	Y16	Z16	X17	Y17	Z17	X18	Y18	Z18	X19	Y19	Z19	X20	Y20	Z20	X21	Y21	Z21	X22	Y22	Z22	X23	Y23	Z23	X24	Y24	Z24	X25	Y25	Z25	X26	Y26	Z26	X27	Y27	Z27	X28	Y28	Z28	X29	Y29	Z29	X30	Y30	Z30	X31	Y31	Z31	X32	Y32	Z32	X33	Y33	Z33	X34	Y34	Z34	X35	Y35	Z35	X36	Y36	Z36	X37	Y37	Z37	X38	Y38	Z38	X39	Y39	Z39	X40	Y40	Z40	X41	Y41	Z41	X42	Y42	Z42	X43	Y43	Z43	X44	Y44	Z44	X45	Y45	Z45	X46	Y46	Z46	X47	Y47	Z47	X48	Y48	Z48	X49	Y49	Z49	X50	Y50	Z50	X51	Y51	Z51	

76	0.75000000	981.00719	473.16438	-34.62788	945.05141	414.23838	-13.12944	712.06677	222.45146	-74.52443	649.25997	247.74315	-125.56575	737.12993	111.47771	-42.89893	789.87689	93.49205	-89.45794	884.07516	459.93086	-314.11981	906.02699	391.73224	-311.37357	830.54441	91.75694	-281.43175	756.49628	60.99946	-239.88236	921.36124	41.11017	-302.95500	969.90788	64.00567	-245.93192	861.21247	337.38725	-19.39702	897.49705	467.14262	-38.46973	807.27344	392.75682	-49.79286	820.18887	405.58343	-338.63485	812.52641	283.88772	-334.68546	944.01103	785.91332	-52.60875	995.03124	685.76073	-35.53804	952.11495	647.35672	1.51648	851.32793	751.41786	-0.75338	895.20381	642.00068	-5.95317	934.01729	752.53197	-342.39244	945.40466	612.56965	-328.39808	822.47524	738.74434	-371.76634	840.61868	597.94899	-349.24087	904.70691	915.63703	-56.98802	725.84510	917.50394	-140.76963	918.32679	919.57026	-313.63659	728.32511	919.19429	-248.21965	787.16372	1396.59426	-177.93673	838.85907	1336.72240	-23.78342	844.15636	1343.13107	-341.19548	898.16569	1308.65495	-158.37306	898.20117	1308.91389	-203.11489	855.65430	1094.07884	44.12680	812.55408	992.06568	-9.89101	831.17198	1008.77911	57.68868	886.64714	899.23980	69.17051	912.07099	782.43212	68.57219	871.32274	774.90714	84.69505	880.27755	1215.45051	-394.50356	821.10339	1000.14452	-366.96632	828.40174	1014.03187	-427.72760	887.31043	923.91717	-456.58056	918.55236	801.41877	-457.72639	884.93350	789.32413	-468.63685	847.40010	835.02095	-90.12778	860.91137	841.88943	-289.84288	854.91989	828.33605	-95.86582	858.83741	831.00502	-265.44651	
77	0.76000000	1002.83560	478.46746	-34.94694	968.78783	417.75404	-13.33220	746.03381	213.70864	-74.00390	681.27745	234.63381	-124.74600	778.60879	104.66464	-42.45827	832.33563	90.26992	-89.25896	888.19114	460.03371	-313.95434	909.28447	391.69799	-311.19020	831.16992	92.26752	-281.19316	756.78730	61.59290	-239.73721	921.53054	41.09542	-302.89978	970.22252	63.70711	-245.85549	888.87322	336.83207	-19.26105	918.50180	468.28071	-38.57528	832.35925	389.15608	-49.94978	823.49022	406.53715	-338.11180	814.71365	284.86844	-334.24497	958.63586	790.39809	-53.33190	1011.97762	691.64630	-36.65611	971.17008	652.73688	1.85299	867.56764	754.10322	0.32351	913.82078	646.02535	-4.43078	943.82042	751.70551	-342.87090	952.75811	611.65801	-328.47585	831.92076	739.73636	-371.43827	847.49217	598.78348	-348.57311	917.64544	917.86219	-58.32568	738.52583	919.07111	-140.08394	930.23537	919.85168	-314.60632	740.68002	920.53227	-247.45196	800.50060	1397.68500	-177.77237	851.53302	1337.82228	-23.53054	857.79671	1344.87186	-340.61963	911.31265	1309.81005	-157.98363	911.43889	1310.13926	-202.71340	865.74056	1094.84840	44.39121	822.37816	993.38920	-10.23925	840.37930	1009.83486	57.49744	894.44289	899.70823	69.69783	918.20507	782.83704	69.49342	877.14614	775.58242	85.05380	895.04625	1217.82377	-394.31608	839.22684	1001.32079	-367.79986	847.34703	1015.25432	-428.36434	910.83559	927.36256	-455.12113	947.87206	806.36930	-454.64811	914.49985	793.03680	-466.92909	860.42860	836.99771	-89.98584	872.59313	842.51734	-289.82713	867.87993	829.77763	-96.80107	871.27924	832.08164	-266.10489	
78	0.77000000	1023.76952	483.31597	-35.32377	991.95531	420.76292	-13.56124	780.82742	204.22430	-73.48519	714.42164	220.41141	-123.99194	821.05288	97.71658	-41.92828	875.58021	87.11607	-88.93097	892.12796	460.10168	-313.80282	912.41614	391.67589	-311.04392	831.74924	92.79136	-280.95859	757.07007	62.29128	-239.57730	921.69613	41.09492	-302.83650	970.51349	63.39627	-245.78126	916.51293	335.69106	-19.11587	938.83079	468.61708	-38.51944	857.31164	384.64474	-49.93822	826.63788	407.48821	-337.53796	816.77017	285.85946	-333.76393	973.06627	794.45800	-53.91287	1028.51145	697.01439	-37.62890	989.73959	657.75271	2.24625	883.50338	756.53700	1.48904	931.96822	649.74617	-2.88626	953.35544	750.77224	-343.44344	959.90316	610.67146	-328.72557	841.11134	740.66665	-370.99423	854.13996	599.57346	-347.92337	930.62784	919.63332	-59.59936	751.20849	920.24206	-139.22726	942.07015	919.91385	-315.61009	752.96079	921.51591	-246.46011	813.81669	1398.52249	-177.59621	864.34828	1338.60534	-23.31249	871.41695	1346.32271	-340.06026	924.49676	1310.68467	-157.66042	924.68511	1311.09555	-202.37660	875.80247	1095.36477	44.72547	832.20247	994.40568	-10.44817	849.56753	1010.64766	57.44005	902.33920	899.99739	70.34463	924.48150	783.04545	70.47916	883.17759	776.09229	85.56469	909.79501	1219.93972	-394.15431	857.41730	1002.31679	-368.66727	866.33582	1016.23116	-429.01877	934.15413	930.90441	-453.68713	976.93995	811.73991	-451.52779	943.89327	797.15950	-464.97202	873.53487	838.54926	-89.83236	884.19950	842.88473	-289.78685	880.87226	830.81911	-97.68388	883.63601	832.82715	-266.78356	
79	0.78000000	1043.79898	487.62268	-35.74364	1014.54927	423.24072	-13.78430	816.44993	194.16679	-73.00377	748.82265	205.27365	-123.41056	864.28948	90.82223	-41.26438	919.46541	84.19539	-88.35469	895.86983	460.12747	-313.66095	915.46367	391.67597	-310.90446	832.31680	93.33323	-280.72692	757.36575	63.07597	-239.40444	921.85394	41.10186	-302.76528	970.80284	63.07558	-245.71773	944.15374	334.02048	-18.95817	958.55306	468.10671	-38.30100	882.16908	379.28871	-49.74359	829.71152	408.41558	-336.95103	818.75115	286.85691	-333.27858	987.32563	798.01360	-54.35686	1044.75467	701.80588	-38.39979	1007.77273	662.28655	2.67480	899.14229	758.66559	2.69518	949.67348	653.04667	-1.38805	962.60986	749.74543	-344.01810	966.83007	609.61517	-329.11241	850.03240	741.55834	-370.45853	860.58612	600.31850	-347.27108	943.67179	920.94688	-60.72212	763.91807	921.04185	-138.25661	953.86579	919.75374	-316.59695	765.19354	922.16003	-245.32043	827.10924	1399.10567	-177.39583	877.29424	1339.05274	-23.11587	885.00203	1347.44716	-339.53669	937.72224	1311.27384	-157.39357	937.93853	1311.77354	-202.09833	885.88067	1095.61049	45.11939	842.02991	995.11405	-10.52530	858.78097	1011.19592	57.49978	910.32233	900.06274	71.07385	930.89772	782.95083	71.48576	889.40919	776.40904	86.21438	924.55390	1221.76274	-393.95492	875.69587	1003.08531	-369.55170	885.37965	1016.94956	-429.67245	957.25817	934.47821	-452.28984	1005.67468	817.46591	-448.40198	973.07206	801.61903	-462.81733	886.69626	839.67918	-89.65465	895.78359	842.99323	-289.70638	893.90438	831.46675	-98.42630	895.91570	833.23060	-267.41539	
80	0.79000000	1062.93044	491.30848	-36.18536	1036.54998	425.16484	-13.97134	852.88322	183.72308	-72.58477	784.57938	189.46506	-123.08414	908.13864	84.15415	-40.42306	963.82477	81.64479	-87.42203	899.41792	460.11112	-313.52081	918.45902	391.70856	-310.75257	832.89983	93.89886	-280.49494	757.69366	63.92701	-239.22088	921.99836	41.10662	-302.68512	971.12479	62.75687	-245.67295	971.79218	331.88591	-18.78598	977.73157	466.68369	-37.97015	906.97747	373.13897	-49.39435	832.76313	409.31656	-336.37502	820.70034	287.86588	-332.80694	1001.45846	800.99226	-54.68312	1060.77518	705.94924	-38.96656	1025.23445	666.22234	3.11369	914.51936	760.44353	3.89388	966.93956	655.83399	0.01287	971.62007	748.63621	-344.51310	973.55195	608.49730	-329.58823	858.72370	742.42812	-369.86105	866.87335	601.02068	-346.59458	956.78935	921.81060	-61.62947	776.67980	921.51265	-137.21920	965.65635	919.38189	-317.51069	777.41223	922.49019	-244.10042	840.38711	1399.43251	-177.16309	890.35536	1339.15990	-22.92278	898.53818	1348.22351	-339.05970	950.98813	1311.57364	-157.17096	951.20150	1312.16746	-201.86635	896.02132	1095.58195	45.56283	851.87491	995.52220	-10.48233	868.06509	1011.47345	57.65923	918.39638	899.88136	71.86076	937.48033	782.49533	72.49099	895.84806	776.51690	86.98081	939.33599	1223.26994	-393.68059	894.08289	1003.59186	-370.42469	904.47513	1017.42749	-430.30573	980.15263	938.03026	-450.92934	1034.01814	823.46725	-445.29179	1001.99769	806.33943	-460.51799	899.89141	840.40393	-89.44003	907.39460	842.85740	-289.57128	906.97119	831.75624	-98.95598	908.12530	833.30032	-267.93122	
81	0.80000000	1081.17417	494.29974	-36.62777	1057.92257	426.51402	-14.10296	890.09995	173.10603	-72.23454	821.74184	173.29545	-123.05812	952.42704	77.88344	-39.35839	1008.48028	79.57579	-86.04378	902.79724	460.06441	-313.36805	921.41593	391.78234	-310.58048	833.50798	94.49635	-280.25604	758.06401	64.83547	-239.02523	922.12472	41.10274	-302.59378	971.50825	62.45359	-245.65090	999.39395	329.35965	-18.59562	996.42257	464.26733	-37.62695	931.78797	366.23758	-48.95864	835.80564	410.20620	-335.81035	822.63727	288.89642	-332.33927	1015.51497	803.33137	-54.91737	1076.54869	709.34757	-39.37890	1042.10034	669.44991	3.53224	929.67720	761.83205	5.04233	983.73473	658.03994	1.27896	980.46321	747.44785	-344.87687	980.09852	607.32384	-330.09881	867.26597	743.28363	-369.23131	873.05106	601.69255	-345.87447	969.98655	922.24059	-62.28713	789.51416	921.69979	-136.15125	977.47624	918.81410	-318.29981	789.65660	922.53646	-242.85202	853.66764	1399.49976	-176.89567	903.51482	1338.93631	-22.71500	912.01402	1348.64342	-338.62771	964.28737	1311.57958	-156.98060	964.47787	1312.27287	-201.66458	906.27196	1095.28761	46.04569	861.76939	995.64348	-10.33495	877.46303	1011.48778	57.90299	926.58546	899.45171	72.69760	944.27723	781.68038	73.50215	902.51632	776.40798	87.83552	954.14324	1224.45287	-393.31649	912.58767	1003.82166	-371.25289	923.61247	1017.70218	-430.90376	1002.85398	941.52243	-449.59469	1061.93871	829.66311	-442.20162	1030.64750	811.24439	-458.11794	913.10418	840.74684	-89.17829	919.07560	842.49701	-289.37102	920.05968	831.73474	-99.23239	920.28063	833.05839	-268.27765	
